<svg width="4234" height="5411" viewBox="0 0 4234 5411" fill="none" xmlns="http://www.w3.org/2000/svg">
<path d="M4233.28 4789.23C4066.73 4907.2 3909.68 5042.84 3731.3 5138.85C3485.62 5271.07 3224.51 5375.33 2939.18 5394.74C2910.5 5396.69 2882.27 5405.03 2840.69 5410.48C2694.48 5410.96 2561.4 5411.35 2422.32 5410.26C2302 5395.24 2187.69 5381.7 2073.39 5368.16C1784.93 5295.78 1508.2 5195.42 1262.67 5022.77C1153.6 4946.07 1046.66 4866.34 935.224 4780.26C892.676 4737.32 853.66 4702.11 814.645 4666.91C814.645 4666.91 814.452 4668.48 815.999 4663.27C811.586 4656.1 805.626 4654.15 799.666 4652.2C799.666 4652.2 799.615 4653.78 801.253 4648.4C792.193 4635.96 781.495 4628.89 770.796 4621.82C770.796 4621.82 770.368 4623.58 772.692 4618.4C739.903 4581.59 704.789 4549.94 669.675 4518.3C579.269 4391.58 482.283 4268.97 399.916 4137.22C257.166 3908.89 153.643 3662.04 88.0548 3400.35C61.2277 3293.31 39.2213 3185.07 16.4245 3066.81C11.4994 2958.51 0.0254983 2860.79 0.000178379 2763.07C-0.0414239 2598.98 7.20273 2434.89 12.5352 2264.7C27.6357 2178.18 41.5828 2097.76 55.5298 2017.34C101.194 1881.82 141.701 1744.29 193.592 1611.2C303.35 1329.7 459.366 1076.55 656.654 845.811C860.897 606.934 1103.4 419.817 1379.28 276.168C1517.52 204.187 1666.25 152.35 1820.45 91.5832C1887.33 77.4336 1943.99 63.1033 2000.66 48.7731C2000.66 48.7731 1999.6 48.1392 2005.93 49.8799C2180.95 35.3367 2349.49 17.2507 2518.39 3.60908C2591.29 -2.27842 2664.93 1.02535 2738.24 0.153627C2816.97 15.3751 2895.55 31.4539 2974.46 45.6544C3196.76 85.6546 3405.28 162.327 3606.87 264.627C3811.15 368.3 3994.73 497.435 4156.51 658.797C4233.22 735.3 4230.92 732.606 4154.67 818.45C4070.87 912.782 3988.75 1009.16 3913.62 1110.39C3879.23 1156.74 3860.37 1146.07 3829.29 1114.35C3682.34 964.308 3515.27 842.27 3324.14 753.918C3295.67 740.756 3268.35 725.106 3233.04 705.224C3211.99 698.98 3198.38 698.119 3184.78 697.258C3184.78 697.258 3184.33 698.321 3182.3 693.17C3142.5 670.625 3106.28 647.042 3066.64 637.119C2983.25 616.243 2898.07 602.533 2813.17 580.618C2584.75 528.709 2357.92 544.022 2126.64 591.281C2111.49 599.693 2101.7 605.701 2091.1 609.365C1990.98 643.96 1890.73 678.156 1790.52 712.468C1676.39 770.509 1560.39 825.221 1448.87 887.904C1387.09 922.633 1332.8 970.694 1268.26 1018.48C1259.51 1029.08 1257.64 1033.93 1255.76 1038.79C1255.76 1038.79 1257.57 1036.94 1251.53 1036.79C1204.62 1076.8 1163.74 1116.97 1122.86 1157.14C1122.86 1157.14 1123.9 1157.6 1119.38 1158.95C1098.52 1184.72 1082.18 1209.14 1065.85 1233.56C1065.85 1233.56 1066.3 1232.15 1061.5 1231.44C1054.09 1235.44 1051.48 1240.15 1048.87 1244.86C999.184 1315.23 952.485 1387.94 899.266 1455.52C730.236 1670.17 638.753 1920.42 577.046 2180.64C529.495 2381.17 502.958 2587.53 518.441 2794.81C542.169 3112.48 612.364 3419.16 770.364 3699.33C852.084 3844.24 943.059 3983.93 1034.23 4133.14C1100.56 4049.54 1158.22 3979.2 1213.35 3906.92C1333.14 3749.87 1452.34 3592.36 1570.48 3434.07C1679.92 3287.42 1787.2 3139.16 1896.45 2992.36C1929.32 2948.2 1965.32 2906.36 2000.37 2863.85C2049.55 2804.18 2062.93 2733.6 2077.32 2659.06C2114.36 2467.2 2216.95 2321.53 2419.73 2283.74C2624.78 2245.52 2766.73 2103.46 2930.31 1997.14C3242.8 1794 3552.27 1586.2 3863.33 1380.86C3898.13 1357.89 3935.11 1338.24 3971.9 1316.57C4013.6 1367.63 4012.78 1407.9 3977.39 1456.19C3824.77 1664.48 3674.97 1874.82 3524.56 2084.72C3385.7 2278.5 3255.53 2479.28 3105.63 2664.06C3022.01 2767.15 3004.8 2895.55 2934.52 3000.45C2847.73 3130.01 2720.4 3192.56 2573.27 3230.04C2510.78 3245.96 2448.11 3276.29 2395.75 3314.19C2162.79 3482.82 1933.02 3655.86 1703.13 3828.67C1535.46 3954.71 1369.25 4082.71 1202.93 4210.53C1191.68 4219.17 1184.93 4233.66 1172.45 4250.27C1306.86 4382.6 1452.45 4499.86 1615.62 4601.38C1810.95 4722.9 2020.73 4795.6 2250.69 4854.94C2288.1 4861.63 2315.59 4860.4 2342.09 4864.93C2561.71 4902.5 2779.03 4891.43 3000.08 4835.66C3036.93 4823.66 3069.08 4814.6 3099.45 4801.43C3221.64 4748.45 3343.28 4694.21 3465.12 4640.44C3465.12 4640.44 3466.27 4640.39 3471.9 4639.66C3528.11 4605.05 3578.69 4571.16 3629.28 4537.27C3629.28 4537.27 3629.26 4536.53 3634.95 4536.46C3701.11 4487.09 3761.6 4437.79 3822.08 4388.49C3822.08 4388.49 3821.26 4387.86 3826.01 4386.69C3851.94 4381.7 3873.11 4377.89 3894.28 4374.08C3894.28 4374.08 3895.22 4373.06 3896.54 4378.31C3927.7 4416.7 3957.54 4449.84 3987.38 4482.98C3987.38 4482.98 3988.35 4486.28 3992.19 4491.33C4065.75 4578.81 4135.47 4661.22 4205.19 4743.64C4205.19 4743.64 4205.32 4744.36 4205.71 4749.25C4215.16 4765.84 4224.22 4777.54 4233.28 4789.23ZM2406.33 2794.18C2425.71 2816.15 2444.09 2839.11 2464.68 2859.89C2510.02 2905.64 2599.67 2904.13 2646.21 2857.92C2697.52 2806.99 2715.94 2684.2 2678.42 2643.25C2613.15 2571.99 2507.93 2577.44 2435.16 2643.09C2386.8 2686.72 2403.67 2735.2 2406.33 2794.18Z" fill="#325CEB"/>
<path d="M2435.36 1179.48C2449.45 1118.87 2458.65 1063.31 2472.72 1009.01C2476.69 993.68 2497.96 969.411 2505.98 971.339C2522.6 975.33 2544.26 991.698 2548.7 1007.29C2570.54 1083.9 2588.09 1161.76 2605.91 1239.46C2657.11 1462.64 2709.09 1685.67 2757.47 1909.46C2768.19 1959.06 2753.84 1996.37 2705.23 2036C2615.36 2109.27 2515.88 2131.03 2407.93 2157.56C2174.94 2214.83 2026.1 2372.52 1987.11 2611.17C1965.63 2742.69 1891.43 2838.81 1822.8 2941.93C1772.65 3017.29 1703.38 2965.3 1644.7 2962.55C1584.41 2959.73 1525.3 2935.15 1465.34 2921.52C1333.76 2891.61 1201.9 2862.9 1070.3 2833.05C1028.81 2823.64 986.273 2815.85 947.316 2799.79C932.694 2793.76 916.099 2763.63 919.712 2749.38C924.508 2730.48 945.862 2706.05 964.177 2701.88C1088.57 2673.51 1214.59 2652.27 1338.96 2623.81C1421.69 2604.88 1501.8 2574.53 1584.5 2555.42C1654.76 2539.18 1727.16 2532.33 1798.34 2519.82C1811.63 2517.48 1823.66 2508 1838.63 2500.66C1736.69 2324.61 1592.09 2179.39 1500.35 2000.94C1506.81 1992.67 1513.26 1984.39 1519.71 1976.11C1596.74 1998.1 1674.22 2018.62 1750.7 2042.39C1888.51 2085.22 2026.08 2128.93 2162.99 2174.53C2211.41 2190.66 2214.53 2163.28 2222.18 2127.95C2274.97 1884.04 2329.5 1640.51 2383.74 1396.92C2399.49 1326.19 2416.1 1255.64 2435.36 1179.48Z" fill="#325CEB"/>
<path d="M2493.55 4508.65C2484.35 4498.39 2475.15 4488.13 2462.19 4468.37C2458.38 4341.85 2457.84 4224.82 2458.62 4107.81C2458.82 4078.21 2459.87 4051.82 2417.5 4064.3C2228.21 3985.64 2227.58 3709.21 2381.7 3598.56C2447.85 3551.06 2603.01 3561.58 2665.64 3626.55C2709.44 3671.99 2739.97 3647.22 2783.07 3629.78C2967.07 3555.37 2932.78 3372.94 2976.95 3234C3045.37 3018.76 3084.05 2792.82 3246.31 2620.03C3258.24 2607.33 3284 2598.34 3301.06 2601.19C3460.08 2627.74 3618.64 2657.04 3777.24 2686.01C3855.35 2700.29 3934.12 2712.34 4010.69 2732.6C4030.21 2737.77 4048.28 2768.65 4055.07 2791.31C4057.62 2799.81 4027.98 2827.72 4010.06 2831.09C3854.76 2860.27 3698.73 2885.58 3543.03 2912.65C3443.99 2929.87 3344.8 2946.57 3246.44 2967.15C3225.21 2971.6 3194.43 2988.22 3189.78 3005.19C3141.55 3181.1 3093.24 3357.31 3056.93 3535.88C3050.38 3568.13 3094.32 3614.6 3121.86 3648.96C3170.58 3709.73 3227.51 3764.03 3274.86 3825.75C3291.34 3847.24 3289.64 3882.67 3296.24 3911.73C3261.41 3917.61 3229.23 3956.22 3190.93 3916.46C3125.4 3848.43 3058.09 3782.12 2991.82 3714.8C2984.94 3707.81 2980.05 3698.87 2974.02 3690.54C2938.94 3707.09 2908.86 3720.85 2879.17 3735.37C2806.99 3770.66 2751.13 3814.99 2737.88 3904.67C2726.71 3980.28 2679.01 4036.18 2589.15 4061.88C2577.88 4184.04 2576.29 4300.92 2576.81 4417.79C2577.07 4475.48 2557.98 4511.94 2493.55 4508.65ZM2414.04 3818.84C2418.66 3837.31 2418.58 3859.06 2428.77 3873.64C2458.08 3915.61 2495.24 3944.44 2550.68 3917.74C2601.25 3893.38 2623.32 3851.88 2614.84 3797.66C2604.61 3732.34 2556.74 3716.74 2503.97 3736.59C2469.97 3749.37 2443.78 3782.9 2414.04 3818.84Z" fill="#325CEB"/>
<path d="M4233.28 4789.23C4066.73 4907.2 3909.68 5042.84 3731.3 5138.85C3485.62 5271.07 3224.51 5375.33 2939.18 5394.74C2910.5 5396.69 2882.27 5405.03 2840.69 5410.48C2694.48 5410.96 2561.4 5411.35 2422.32 5410.26C2302 5395.24 2187.69 5381.7 2073.39 5368.16C1784.93 5295.78 1508.2 5195.42 1262.67 5022.77C1153.6 4946.07 1046.66 4866.34 935.224 4780.26C892.676 4737.32 853.66 4702.11 814.645 4666.91C814.645 4666.91 814.452 4668.48 815.999 4663.27C811.586 4656.1 805.626 4654.15 799.666 4652.2C799.666 4652.2 799.615 4653.78 801.253 4648.4C792.193 4635.96 781.495 4628.89 770.796 4621.82C770.796 4621.82 770.368 4623.58 772.692 4618.4C739.903 4581.59 704.789 4549.94 669.675 4518.3C579.269 4391.58 482.283 4268.97 399.916 4137.22C257.166 3908.89 153.643 3662.04 88.0548 3400.35C61.2277 3293.31 39.2213 3185.07 16.4245 3066.81C11.4994 2958.51 0.0254983 2860.79 0.000178379 2763.07C-0.0414239 2598.98 7.20273 2434.89 12.5352 2264.7C27.6357 2178.18 41.5828 2097.76 55.5298 2017.34C101.194 1881.82 141.701 1744.29 193.592 1611.2C303.35 1329.7 459.366 1076.55 656.654 845.811C860.897 606.934 1103.4 419.817 1379.28 276.168C1517.52 204.187 1666.25 152.35 1820.45 91.5832C1887.33 77.4336 1943.99 63.1033 2000.66 48.7731C2000.66 48.7731 1999.6 48.1392 2005.93 49.8799C2180.95 35.3367 2349.49 17.2507 2518.39 3.60908C2591.29 -2.27842 2664.93 1.02535 2738.24 0.153627C2816.97 15.3751 2895.55 31.4539 2974.46 45.6544C3196.76 85.6546 3405.28 162.327 3606.87 264.627C3811.15 368.3 3994.73 497.435 4156.51 658.797C4233.22 735.3 4230.92 732.606 4154.67 818.45C4070.87 912.782 3988.75 1009.16 3913.62 1110.39C3879.23 1156.74 3860.37 1146.07 3829.29 1114.35C3682.34 964.308 3515.27 842.27 3324.14 753.918C3295.67 740.756 3268.35 725.106 3233.04 705.224C3211.99 698.98 3198.38 698.119 3184.78 697.258C3184.78 697.258 3184.33 698.321 3182.3 693.17C3142.5 670.625 3106.28 647.042 3066.64 637.119C2983.25 616.243 2898.07 602.533 2813.17 580.618C2584.75 528.709 2357.92 544.022 2126.64 591.281C2111.49 599.693 2101.7 605.701 2091.1 609.365C1990.98 643.96 1890.73 678.156 1790.52 712.468C1676.39 770.509 1560.39 825.221 1448.87 887.904C1387.09 922.633 1332.8 970.694 1268.26 1018.48C1259.51 1029.08 1257.64 1033.93 1255.76 1038.79C1255.76 1038.79 1257.57 1036.94 1251.53 1036.79C1204.62 1076.8 1163.74 1116.97 1122.86 1157.14C1122.86 1157.14 1123.9 1157.6 1119.38 1158.95C1098.52 1184.72 1082.18 1209.14 1065.85 1233.56C1065.85 1233.56 1066.3 1232.15 1061.5 1231.44C1054.09 1235.44 1051.48 1240.15 1048.87 1244.86C999.184 1315.23 952.485 1387.94 899.266 1455.52C730.236 1670.17 638.753 1920.42 577.046 2180.64C529.495 2381.17 502.958 2587.53 518.441 2794.81C542.169 3112.48 612.364 3419.16 770.364 3699.33C852.084 3844.24 943.059 3983.93 1034.23 4133.14C1100.56 4049.54 1158.22 3979.2 1213.35 3906.92C1333.14 3749.87 1452.34 3592.36 1570.48 3434.07C1679.92 3287.42 1787.2 3139.16 1896.45 2992.36C1929.32 2948.2 1965.32 2906.36 2000.37 2863.85C2049.55 2804.18 2062.93 2733.6 2077.32 2659.06C2114.36 2467.2 2216.95 2321.53 2419.73 2283.74C2624.78 2245.52 2766.73 2103.46 2930.31 1997.14C3242.8 1794 3552.27 1586.2 3863.33 1380.86C3898.13 1357.89 3935.11 1338.24 3971.9 1316.57C4013.6 1367.63 4012.78 1407.9 3977.39 1456.19C3824.77 1664.48 3674.97 1874.82 3524.56 2084.72C3385.7 2278.5 3255.53 2479.28 3105.63 2664.06C3022.01 2767.15 3004.8 2895.55 2934.52 3000.45C2847.73 3130.01 2720.4 3192.56 2573.27 3230.04C2510.78 3245.96 2448.11 3276.29 2395.75 3314.19C2162.79 3482.82 1933.02 3655.86 1703.13 3828.67C1535.46 3954.71 1369.25 4082.71 1202.93 4210.53C1191.68 4219.17 1184.93 4233.66 1172.45 4250.27C1306.86 4382.6 1452.45 4499.86 1615.62 4601.38C1810.95 4722.9 2020.73 4795.6 2250.69 4854.94C2288.1 4861.63 2315.59 4860.4 2342.09 4864.93C2561.71 4902.5 2779.03 4891.43 3000.08 4835.66C3036.93 4823.66 3069.08 4814.6 3099.45 4801.43C3221.64 4748.45 3343.28 4694.21 3465.12 4640.44C3465.12 4640.44 3466.27 4640.39 3471.9 4639.66C3528.11 4605.05 3578.69 4571.16 3629.28 4537.27C3629.28 4537.27 3629.26 4536.53 3634.95 4536.46C3701.11 4487.09 3761.6 4437.79 3822.08 4388.49C3822.08 4388.49 3821.26 4387.86 3826.01 4386.69C3851.94 4381.7 3873.11 4377.89 3894.28 4374.08C3894.28 4374.08 3895.22 4373.06 3896.54 4378.31C3927.7 4416.7 3957.54 4449.84 3987.38 4482.98C3987.38 4482.98 3988.35 4486.28 3992.19 4491.33C4065.75 4578.81 4135.47 4661.22 4205.19 4743.64C4205.19 4743.64 4205.32 4744.36 4205.71 4749.25C4215.16 4765.84 4224.22 4777.54 4233.28 4789.23ZM2406.33 2794.18C2425.71 2816.15 2444.09 2839.11 2464.68 2859.89C2510.02 2905.64 2599.67 2904.13 2646.21 2857.92C2697.52 2806.99 2715.94 2684.2 2678.42 2643.25C2613.15 2571.99 2507.93 2577.44 2435.16 2643.09C2386.8 2686.72 2403.67 2735.2 2406.33 2794.18Z" fill="#325CEB"/>
<path d="M2435.36 1179.48C2449.45 1118.87 2458.65 1063.31 2472.72 1009.01C2476.69 993.68 2497.96 969.411 2505.98 971.339C2522.6 975.33 2544.26 991.698 2548.7 1007.29C2570.54 1083.9 2588.09 1161.76 2605.91 1239.46C2657.11 1462.64 2709.09 1685.67 2757.47 1909.46C2768.19 1959.06 2753.84 1996.37 2705.23 2036C2615.36 2109.27 2515.88 2131.03 2407.93 2157.56C2174.94 2214.83 2026.1 2372.52 1987.11 2611.17C1965.63 2742.69 1891.43 2838.81 1822.8 2941.93C1772.65 3017.29 1703.38 2965.3 1644.7 2962.55C1584.41 2959.73 1525.3 2935.15 1465.34 2921.52C1333.76 2891.61 1201.9 2862.9 1070.3 2833.05C1028.81 2823.64 986.273 2815.85 947.316 2799.79C932.694 2793.76 916.099 2763.63 919.712 2749.38C924.508 2730.48 945.862 2706.05 964.177 2701.88C1088.57 2673.51 1214.59 2652.27 1338.96 2623.81C1421.69 2604.88 1501.8 2574.53 1584.5 2555.42C1654.76 2539.18 1727.16 2532.33 1798.34 2519.82C1811.63 2517.48 1823.66 2508 1838.63 2500.66C1736.69 2324.61 1592.09 2179.39 1500.35 2000.94C1506.81 1992.67 1513.26 1984.39 1519.71 1976.11C1596.74 1998.1 1674.22 2018.62 1750.7 2042.39C1888.51 2085.22 2026.08 2128.93 2162.99 2174.53C2211.41 2190.66 2214.53 2163.28 2222.18 2127.95C2274.97 1884.04 2329.5 1640.51 2383.74 1396.92C2399.49 1326.19 2416.1 1255.64 2435.36 1179.48Z" fill="#325CEB"/>
<path d="M2493.55 4508.65C2484.35 4498.39 2475.15 4488.13 2462.19 4468.37C2458.38 4341.85 2457.84 4224.82 2458.62 4107.81C2458.82 4078.21 2459.87 4051.82 2417.5 4064.3C2228.21 3985.64 2227.58 3709.21 2381.7 3598.56C2447.85 3551.06 2603.01 3561.58 2665.64 3626.55C2709.44 3671.99 2739.97 3647.22 2783.07 3629.78C2967.07 3555.37 2932.78 3372.94 2976.95 3234C3045.37 3018.76 3084.05 2792.82 3246.31 2620.03C3258.24 2607.33 3284 2598.34 3301.06 2601.19C3460.08 2627.74 3618.64 2657.04 3777.24 2686.01C3855.35 2700.29 3934.12 2712.34 4010.69 2732.6C4030.21 2737.77 4048.28 2768.65 4055.07 2791.31C4057.62 2799.81 4027.98 2827.72 4010.06 2831.09C3854.76 2860.27 3698.73 2885.58 3543.03 2912.65C3443.99 2929.87 3344.8 2946.57 3246.44 2967.15C3225.21 2971.6 3194.43 2988.22 3189.78 3005.19C3141.55 3181.1 3093.24 3357.31 3056.93 3535.88C3050.38 3568.13 3094.32 3614.6 3121.86 3648.96C3170.58 3709.73 3227.51 3764.03 3274.86 3825.75C3291.34 3847.24 3289.64 3882.67 3296.24 3911.73C3261.41 3917.61 3229.23 3956.22 3190.93 3916.46C3125.4 3848.43 3058.09 3782.12 2991.82 3714.8C2984.94 3707.81 2980.05 3698.87 2974.02 3690.54C2938.94 3707.09 2908.86 3720.85 2879.17 3735.37C2806.99 3770.66 2751.13 3814.99 2737.88 3904.67C2726.71 3980.28 2679.01 4036.18 2589.15 4061.88C2577.88 4184.04 2576.29 4300.92 2576.81 4417.79C2577.07 4475.48 2557.98 4511.94 2493.55 4508.65ZM2414.04 3818.84C2418.66 3837.31 2418.58 3859.06 2428.77 3873.64C2458.08 3915.61 2495.24 3944.44 2550.68 3917.74C2601.25 3893.38 2623.32 3851.88 2614.84 3797.66C2604.61 3732.34 2556.74 3716.74 2503.97 3736.59C2469.97 3749.37 2443.78 3782.9 2414.04 3818.84Z" fill="#325CEB"/>
</svg>
